<svg xmlns="http://www.w3.org/2000/svg" viewBox="0 0 496.92 482.64"><defs><style>.cls-1{fill:#f99b06;}</style></defs><title>Fichier 2</title><g id="Calque_2" data-name="Calque 2"><g id="Calque_1-2" data-name="Calque 1"><path class="cls-1" d="M137.53,174c-19.74-39.22-77-34.78-101.9-2.55-23.14,30-9.85,85.54,28.2,93.89l122.3,26.95c-15.88-38.7-31.22-80.63-48.6-118.29Zm161-174a28.13,28.13,0,0,1,12.27,53.44v66.88c34.28-8.45,72.35-3.33,102.35,15.58l34-75.15a28.12,28.12,0,1,1,22.3,10.1l-36.57,80.83c17,17.16,27.23,39.28,27.23,63.51,0,57.48-54,94.84-107.16,98.47,1.58,41.23-18.45,81.32-47.58,109.61C266.64,461,204,483.06,153.3,456.31L105,481.22C93.78,487,82.31,474.05,89.1,463.64l27.7-42.38c-21.27-36.68-15-82.28,4.79-118.12l-63-13.88C-11.71,273.78-23.5,162,49.37,129.63c37.6-91.26,172.79-54.08,165.35,31l-5.88,67.47a149.14,149.14,0,0,1,18.37-5.28c-3.8-41.43,22.86-76.51,59.1-93.76V53.44A28.13,28.13,0,0,1,298.57,0ZM190.3,158.51c4.47-51.42-73.05-79.34-108.19-36.55,32.44-1.58,65.61,13.6,78.92,44.66,7.91,19.11,15.7,38.28,23.55,57.41l5.72-65.52Zm16.15,97c2.55,60.05,70.92,86.85,117.19,94a103.87,103.87,0,0,0,4.83-36.34c-40.28-4.41-80.23-27.69-95.58-66.52a121,121,0,0,0-26.44,8.9Zm-59.74,53.13C117.3,357,234.2,409.88,276.5,416.09a143.15,143.15,0,0,0,37.22-43.4C274,366,234,353.57,207.62,321.45,190.85,323.25,163.67,312.42,146.71,308.68ZM251.4,215.19c0,47.18,49.68,74.26,92.11,74.26s92.12-27.08,92.12-74.26S386,140.92,343.51,140.92,251.4,168.05,251.4,215.19Zm81.89-11.83c0,14.33-12.53,25.95-28,25.95s-28-11.62-28-25.95,12.53-26,28-26S333.29,189,333.29,203.36Zm76.45.25c0,14.32-12.53,25.94-28,25.94s-28-11.62-28-25.94,12.53-26,28-26S409.74,189.27,409.74,203.61ZM130.2,349c-4.55,22-2.38,45.77,10.72,64.61,7,8.64-1.1,17.17-5.93,24.56,7.26-3.74,17-11.3,25.15-6.18,25.1,15.85,57.45,13.68,84.07,2.87-50.1-11.74-93.77-36.11-114-85.86Z"/></g></g></svg>