<svg xmlns="http://www.w3.org/2000/svg" viewBox="0 0 135.16 160.92"><defs><style>.cls-1,.cls-2,.cls-3,.cls-4{fill:none;stroke:#000;}.cls-1,.cls-2,.cls-4{stroke-miterlimit:10;}.cls-1,.cls-3{stroke-width:1.5px;}.cls-3{stroke-linecap:square;stroke-linejoin:round;}.cls-4{stroke-width:2px;}</style></defs><title>Fichier 4</title><g id="Calque_2" data-name="Calque 2"><g id="Calque_2-2" data-name="Calque 2"><path class="cls-1" d="M134.41,1.65c-5.13,0-9.43,3.64-13.49,6.78A98,98,0,0,1,76.69,27.55c1.28,2,3,4.15,2.5,6.43a504.09,504.09,0,0,0,48.25-21,12.25,12.25,0,0,0,4.12-2.84A14.06,14.06,0,0,0,134.41,1.65Z"/><path class="cls-1" d="M25.09,34.62a57.31,57.31,0,0,0-13.78,4.24A24.33,24.33,0,0,0,.65,48.31C7.39,39.82,19.1,37,29.94,36.85s21.69,2,32.49.93c1.83-.17,8.07-.84,8.3-2.67.3-2.4-.17-5.86-4.39-5.39-1.2.13-2.36,1.21-3.69,1.41-2.4.35-5.1,0-7.54.05A177.21,177.21,0,0,0,25.09,34.62Z"/><path class="cls-2" d="M67.64,23.06A11.24,11.24,0,0,1,77.93,30.2,11.62,11.62,0,0,1,75,42.45a11.23,11.23,0,0,1-10,2.79,10.31,10.31,0,0,1-7.51-7c1.73-.06,3.72-.14,5.94-.33,1.86-.16,3,.69,4.74.06a4.23,4.23,0,0,0,.43-7.74c-2.81-1.44-3.83.74-6,.91-3,.22-5.31.08-5.31-.65C57.34,24.94,64.85,23.06,67.64,23.06Z"/><path d="M125.55,14.28a13.85,13.85,0,0,1-1.94,7.21,39,39,0,0,1-4.1,5.9c-1.5,1.83-3.08,3.58-4.63,5.35a50.5,50.5,0,0,0-4.39,5.51,51.42,51.42,0,0,1,4-5.83c1.42-1.87,2.88-3.73,4.22-5.64a36.94,36.94,0,0,0,3.55-6,12.13,12.13,0,0,0,1.29-6.36Z"/><path d="M65.82,3.47a9.9,9.9,0,0,1,5.76-.24,17.23,17.23,0,0,1,5.36,2.39c3.3,2.11,6,4.86,9.13,6.66a36.64,36.64,0,0,0,10.25,4.06,45.3,45.3,0,0,0,11.18,1.21A29.55,29.55,0,0,1,96,17.87a31,31,0,0,1-11-3.87c-3.44-2-6.06-4.88-9-7.11A19.21,19.21,0,0,0,71.3,4.16,11,11,0,0,0,65.82,3.47Z"/><path d="M35.37,38.88c-2.12,1.56-4.17,3.12-6.11,4.79a67.17,67.17,0,0,0-5.5,5.3,65.64,65.64,0,0,0-4.86,5.9c-1.51,2.06-2.91,4.22-4.3,6.45a28.14,28.14,0,0,1,3-7.3,35.54,35.54,0,0,1,4.71-6.4,35,35,0,0,1,6-5.19A28.29,28.29,0,0,1,35.37,38.88Z"/><path class="cls-1" d="M44.94,31.76c-2.61.47-8.46,1.33-11,.64-1.6-.44-2.2-2.17-3.61-3-1.91-1.15-6.64-4.09-10.66-5,2.87-.61,11.11,1.14,13.87,2.15a38.19,38.19,0,0,1,4.72,2.08C39,29,44.27,31.88,44.94,31.76Z"/><path class="cls-1" d="M70.65,6.73c1.2,1.76,2,3.79,3.09,5.61a16.12,16.12,0,0,0,10.11,7.14c4.14.91,9.6,1.62,13.13-.71,1-.66,1.57-.83,2-2,.71-2-1.23-6.4-2.71-8A26.47,26.47,0,0,0,81.71,1.12a26.1,26.1,0,0,0-8-.12c-2.34.32-5.8.85-7.67,2.35A8.31,8.31,0,0,1,70.65,6.73Z"/><path class="cls-1" d="M113.07,23.93c-2.19,1.47-4,2.64-5.61,4.78-1.9,2.59-2.15,5.76-2.88,8.9s-.79,6.7-3,9.09A29.32,29.32,0,0,0,110,44c3.75-1.67,7.8-2.07,11.14-4.46,2.82-2,5.09-5.94,6.16-9.24s-.55-11-3.54-12.23C123.21,17.8,115.55,22.28,113.07,23.93Z"/><path class="cls-1" d="M18.52,43c-2.83,3.14-4.07,7.16-4.89,11.11s-1.31,8-2.92,11.76a83.54,83.54,0,0,0,12.1-4.92,33.43,33.43,0,0,0,9-6A17.91,17.91,0,0,0,37,41.48c0-.85.07-2.59-.67-3.24s-2.26-.57-3.08-.64a19.13,19.13,0,0,0-7.64.89A16.49,16.49,0,0,0,18.52,43Z"/><path class="cls-3" d="M57,40.81a13,13,0,0,0-9.11,9.94,2,2,0,0,1-1.56,1.58,12.21,12.21,0,0,0-9.72,13.93,1.91,1.91,0,0,1-1.51,2.12,10,10,0,0,0-7.16,13.81,1.89,1.89,0,0,1-.75,2.34c-3.5,2.1-6.22,5.52-6.41,9.58a13,13,0,0,0,3.9,9.75,2,2,0,0,1,.2,2.53v0a10.3,10.3,0,0,0-.87,3.88c.4,9.13,3,16.36,17.09,21-1.15-.47-3.16-1.25-4.94-2a1.93,1.93,0,0,0-2.63,2.06,17.23,17.23,0,0,0,6.25,10.26c3.7,3,8.23,4.86,12.73,6.55a1.93,1.93,0,0,1,1.2,1.26,12.94,12.94,0,0,0,6,7.58,25.45,25.45,0,0,0,10.53,3,21.52,21.52,0,0,0,10.33-1.1c2.89-1.2,9.28-5.25,10.5-7.81A2.06,2.06,0,0,1,92.51,150c5.21-1,6.93-2.69,11-6.88,3.33-3.41,4.86-8.35,5.75-13.25.31-1.69-1-2.73-2.42-1.75-3.53,2.44-7.75,2.26-13.27,5.55,6.25-3.14,11.48-3.51,16.4-8.49,4.77-4.82,9.89-13.93,9-20.76-.37-2.79-2.09-2.28-2-4.65,0-1.3,1.07-2.37,1.68-3.52a16.31,16.31,0,0,0-1.68-17.23,2,2,0,0,1-.47-1.42c.31-2.67-.8-5.36-2.21-7.7A12,12,0,0,0,108.36,65a1.91,1.91,0,0,1-1.19-1.52,14.51,14.51,0,0,0-4.76-9.27,14.75,14.75,0,0,0-9.91-3.52,1.87,1.87,0,0,1-1.67-1c-1.29-2.26-2.6-4.73-4.57-6.31a10,10,0,0,0-8.18-2.29c-2.78.62-5,2.75-7.65,3.76-3.91,1.49-8.81-.19-11.5-3.45A1.92,1.92,0,0,0,57,40.81Z"/><path class="cls-2" d="M49.3,102.09a10.86,10.86,0,0,1,10.4,5.4,6.64,6.64,0,0,1,.74,5.3,6.26,6.26,0,0,1-4.33,3.69,14.62,14.62,0,0,1-5.86.11,15.22,15.22,0,0,1-6.27-2c-2.66-1.75-4.27-5-2.39-7.75A10.86,10.86,0,0,1,49.3,102.09Z"/><path d="M44.89,107.63a5.12,5.12,0,0,0,1.34,5.07A7.61,7.61,0,0,0,49.68,114l4.82,1c1.66.34,3.59.61,4.87-.5s1.31-2.84,1-4.37a10.26,10.26,0,0,0-5.21-6.83c-1.93-1-5.19-1.78-7.27-.75C46.3,103.32,45.26,106.07,44.89,107.63Z"/><path d="M90.38,50.14a11.17,11.17,0,0,1-1,2.72,11.43,11.43,0,0,1-1.78,2.39,6.68,6.68,0,0,1-2.36,1.89,4.87,4.87,0,0,1-3.07.24l-.05-.19a17.31,17.31,0,0,1,2.17-1.81c.68-.54,1.53-.81,2.26-1.33a13.49,13.49,0,0,0,2-1.78,12.37,12.37,0,0,0,1.68-2.21Z"/><path class="cls-4" d="M47.39,52A4.53,4.53,0,0,0,51.5,54.9"/><path d="M107.51,65.07a22,22,0,0,1-3.3,4.4A25.37,25.37,0,0,1,99.86,73a16.24,16.24,0,0,1-5.1,2.36,12.26,12.26,0,0,1-5.62,0v-.2c1.77-.63,3.44-1.14,5.07-1.76s3.3-1.06,4.88-1.84a23.15,23.15,0,0,0,4.45-2.84A23.42,23.42,0,0,0,107.34,65Z"/><path d="M51,73.3c1.49.25,3,.51,4.46.7s3,.39,4.46.51,3,.06,4.45.34A22,22,0,0,1,68.79,76v.2a14.29,14.29,0,0,1-4.6.64,21.67,21.67,0,0,1-4.51-.74c-1.5-.33-3-.7-4.43-1.12s-2.9-.92-4.31-1.49Z"/><path d="M36.66,65.61a11.4,11.4,0,0,0,1.63,1.56,11.88,11.88,0,0,0,1.8,1.22,15.93,15.93,0,0,1,1.91.89,9.46,9.46,0,0,1,1.78,1.53l0,.19a3.8,3.8,0,0,1-2.57.1,5.2,5.2,0,0,1-2-1.42,9.56,9.56,0,0,1-1.59-1.84,9,9,0,0,1-1.06-2.13Z"/><path d="M28.19,83.23a19.72,19.72,0,0,0,1.87,1.2c.63.36,1.27.69,1.92,1a11.57,11.57,0,0,1,2,.77,6.93,6.93,0,0,1,1.74,1.54l0,.19a4,4,0,0,1-2.47.11,5.46,5.46,0,0,1-2-1.24,12.82,12.82,0,0,1-1.72-1.57A13,13,0,0,1,28,83.36Z"/><path d="M25,104.57a21.16,21.16,0,0,0,2.14.57q1.06.24,2.13.39a10.49,10.49,0,0,1,2.11.21,6.43,6.43,0,0,1,2.08,1v.2a4,4,0,0,1-2.34.74,5.76,5.76,0,0,1-2.25-.64,14.49,14.49,0,0,1-2.1-1,13.5,13.5,0,0,1-1.87-1.33Z"/><path d="M116.51,100.54a25.82,25.82,0,0,1-3.09,4.35,28.58,28.58,0,0,1-4,3.64,17.26,17.26,0,0,1-4.67,2.77,12.8,12.8,0,0,1-5.39.77l0-.19c1.59-.91,3.13-1.63,4.64-2.42s3.09-1.37,4.56-2.26a27.23,27.23,0,0,0,4.16-3,28.63,28.63,0,0,0,3.63-3.75Z"/><path d="M116.15,77.84a23.14,23.14,0,0,1-4,5.68,26.13,26.13,0,0,1-5.49,4.37,19.38,19.38,0,0,1-6.54,2.71,15.26,15.26,0,0,1-7.05-.25v-.2a64,64,0,0,0,6.58-1.49,41.6,41.6,0,0,0,6.24-2.18,25.19,25.19,0,0,0,5.56-3.68A24.67,24.67,0,0,0,116,77.74Z"/><path d="M46.32,91.51c1.28.29,2.56.56,3.85.74a38.69,38.69,0,0,0,3.86.46c1.29.1,2.58,0,3.85.17a20.57,20.57,0,0,1,3.88.89V94a10.26,10.26,0,0,1-4,.91,15,15,0,0,1-4-.59c-1.31-.29-2.6-.65-3.86-1.06a33.18,33.18,0,0,1-3.68-1.54Z"/><path d="M73.67,93.45c1-.06,1.89-.12,2.82-.25s1.84-.26,2.74-.44a19.55,19.55,0,0,1,2.68-.61,10.13,10.13,0,0,1,2.91.18l.06.19a6,6,0,0,1-2.57,1.59,8.68,8.68,0,0,1-2.92.24,21.74,21.74,0,0,1-2.91-.15,24,24,0,0,1-2.83-.55Z"/><path d="M53.74,132.52a40.76,40.76,0,0,0,4.34,1.54,38,38,0,0,0,4.43,1.05c1.49.27,3,.27,4.47.58a36,36,0,0,1,4.51,1.1v.2a12.22,12.22,0,0,1-4.73.69,17.58,17.58,0,0,1-4.64-1A37.78,37.78,0,0,1,57.72,135a31.74,31.74,0,0,1-4.07-2.29Z"/><path d="M67.37,150.9c.53-.09,1-.12,1.58-.19s1-.07,1.57-.08a3.68,3.68,0,0,1,1.55,0,3,3,0,0,1,1.4,1.11l0,.2a3,3,0,0,1-1.65.67,3.41,3.41,0,0,1-1.5-.41c-.5-.15-1-.32-1.49-.51s-1-.38-1.47-.6Z"/><path d="M69.87,115.7c.77-.19,1.55-.33,2.33-.49s1.55-.28,2.33-.39a8,8,0,0,1,2.33-.3,5.63,5.63,0,0,1,2.38.81v.2a5.42,5.42,0,0,1-2.3,1,7.74,7.74,0,0,1-2.35-.11c-.79,0-1.57-.12-2.36-.2s-1.57-.18-2.35-.31Z"/><path d="M73,109a27.58,27.58,0,0,0,3.85.13,25,25,0,0,0,3.77-.37c1.24-.21,2.41-.67,3.64-.83a26.1,26.1,0,0,1,3.88-.36l.08.18a8.88,8.88,0,0,1-3.47,2.12,12.42,12.42,0,0,1-4,.48,26.34,26.34,0,0,1-4-.22,23.51,23.51,0,0,1-3.83-.93Z"/><path d="M85.93,114.34a11.17,11.17,0,0,0,1.33-.25c.42-.1.83-.22,1.23-.35s.72-.46,1.14-.42a3.35,3.35,0,0,1,1.48.41l.09.19a2.16,2.16,0,0,1-1,1.33,2.52,2.52,0,0,1-1.49.08,5.94,5.94,0,0,1-1.45-.24,6.53,6.53,0,0,1-1.33-.55Z"/><path d="M57.3,56.89a13.4,13.4,0,0,0,2.46.82,14.32,14.32,0,0,0,2.49.34c.84,0,1.65-.18,2.45-.09a15,15,0,0,1,2.63.45l.06.19A4.48,4.48,0,0,1,64.83,60,6.3,6.3,0,0,1,62,59.64a11.2,11.2,0,0,1-2.6-1,10.74,10.74,0,0,1-2.22-1.58Z"/><path d="M111.75,71.89a29.68,29.68,0,0,1-1.92,2.28,28.36,28.36,0,0,1-2.18,2.06,9.8,9.8,0,0,1-2.4,1.8,6.66,6.66,0,0,1-3,.63l-.09-.18a10.36,10.36,0,0,1,2.1-2.17,18.5,18.5,0,0,1,2.51-1.39c.82-.48,1.64-1,2.46-1.52s1.61-1.08,2.42-1.65Z"/><path d="M118.48,89.25a34.3,34.3,0,0,1-3.83,4.52,38.31,38.31,0,0,1-4.61,3.8,21.8,21.8,0,0,1-5.23,3,16.57,16.57,0,0,1-5.93,1l0-.2c1.76-1,3.49-1.81,5.19-2.68s3.49-1.53,5.16-2.48A38.15,38.15,0,0,0,114,93a38.9,38.9,0,0,0,4.34-3.9Z"/><path d="M29.82,75.86a16,16,0,0,0,2,1.72A17,17,0,0,0,34,79,23.75,23.75,0,0,1,36.24,80a11.08,11.08,0,0,1,2.11,1.69l0,.19a4.85,4.85,0,0,1-2.9-.06,6.63,6.63,0,0,1-2.35-1.56,13,13,0,0,1-2-2A12.83,12.83,0,0,1,29.66,76Z"/><path d="M29.6,116.19a29.63,29.63,0,0,0,3.49,1.71,26.77,26.77,0,0,0,3.62,1.26c1.23.34,2.51.42,3.71.81a25.26,25.26,0,0,1,3.7,1.35v.2a9.17,9.17,0,0,1-4.08.41,12.89,12.89,0,0,1-3.85-1.26,27.34,27.34,0,0,1-3.55-1.88,22.82,22.82,0,0,1-3.15-2.44Z"/><path d="M113.94,114.94a32.68,32.68,0,0,1-3.27,2.44,39.11,39.11,0,0,1-3.57,2,15.53,15.53,0,0,1-3.82,1.57,10.67,10.67,0,0,1-4.18.09l0-.2a21.33,21.33,0,0,1,3.65-1.81c1.21-.51,2.53-.71,3.78-1.13a38.86,38.86,0,0,0,3.71-1.43c1.23-.51,2.43-1.11,3.63-1.73Z"/><path d="M77.44,124.42a17.56,17.56,0,0,1-2.27.58,16.88,16.88,0,0,1-2.35.25,6.14,6.14,0,0,1-2.38-.08,4.37,4.37,0,0,1-2.09-1.37l.05-.19a6.37,6.37,0,0,1,2.37-.41,10.17,10.17,0,0,1,2.15.45c.73.14,1.47.25,2.22.35s1.5.16,2.28.22Z"/><path d="M82.63,67.71c-.51.1-1,.15-1.53.23s-1,.11-1.52.14a3.36,3.36,0,0,1-1.51,0,3,3,0,0,1-1.39-1.06l0-.2a2.94,2.94,0,0,1,1.59-.73c.51-.1,1,.22,1.46.36s1,.29,1.46.46,1,.35,1.44.56Z"/><path d="M99.24,55.62a6.85,6.85,0,0,1-.54,2.61,7.77,7.77,0,0,1-1.53,2.3,5,5,0,0,1-2.29,1.66A3.67,3.67,0,0,1,92,61.91v-.2c.81-.58,1.46-1,2.09-1.37s1.37-.57,2-1a8.34,8.34,0,0,0,1.71-1.6A7.37,7.37,0,0,0,99,55.59Z"/><path d="M41,58.94a22.37,22.37,0,0,0,1.77,1.48c.6.46,1.22.89,1.84,1.29a11.46,11.46,0,0,1,1.91,1.1,7.32,7.32,0,0,1,1.56,1.85l-.08.18a4.35,4.35,0,0,1-2.53-.32A6.09,6.09,0,0,1,43.58,63,13.68,13.68,0,0,1,42,61.11a14.14,14.14,0,0,1-1.21-2Z"/><path d="M84.91,48.63c-.45.32-.91.59-1.36.89s-.91.54-1.38.79-.87.67-1.41.7A3.1,3.1,0,0,1,79,50.67l-.06-.19a3.1,3.1,0,0,1,1.18-1.36,3.68,3.68,0,0,1,1.55-.32c.52-.09,1-.17,1.58-.23s1.06-.11,1.61-.13Z"/><path d="M71.19,29.77a6.86,6.86,0,0,1,2,7.33,6.14,6.14,0,0,1-2.45,3.26,5.51,5.51,0,0,1-3.9.88v-.1a8.51,8.51,0,0,0,3.33-1.59,7.33,7.33,0,0,0,2.29-2.74,6.67,6.67,0,0,0-1.29-7Z"/><path d="M53,45.44a6.25,6.25,0,0,0,1.38.8,7,7,0,0,0,1.41.46c.48.1,1,0,1.4.16a6.63,6.63,0,0,1,1.48.87l0,.2a2.33,2.33,0,0,1-1.76.91,3,3,0,0,1-1.75-.66A5.79,5.79,0,0,1,53.8,47a5.29,5.29,0,0,1-.94-1.48Z"/><path d="M77.05,142.65a26.12,26.12,0,0,0,10.5-.44,49.36,49.36,0,0,0,4.92-1.72c1.62-.61,3.21-1.33,4.89-2.05l.09.12a14.17,14.17,0,0,1-4.38,3.3,18.08,18.08,0,0,1-5.28,1.53A24,24,0,0,1,77,142.8Z"/></g></g></svg>