<svg xmlns="http://www.w3.org/2000/svg" viewBox="0 0 140.59 168.9"><defs><style>.cls-1,.cls-2{fill:none;stroke:#000;stroke-miterlimit:10;}.cls-2{stroke-width:2px;stroke-dasharray:9;}</style></defs><title>Fichier 2</title><g id="Calque_2" data-name="Calque 2"><g id="Calque_2-2" data-name="Calque 2"><circle cx="78.8" cy="58.73" r="12.74"/><circle class="cls-1" cx="78.8" cy="58.88" r="23.11"/><path class="cls-1" d="M90,38.35a37.72,37.72,0,0,0,8.29-16A40.7,40.7,0,0,0,97.66.81,42.25,42.25,0,0,0,85,15.17a34.29,34.29,0,0,0-3.67,9c-.73,3.5-.17,7.44-.69,11.06"/><path class="cls-1" d="M101.13,51.8a32.93,32.93,0,0,1,17.25-2.72c7.38,1,14.13,4.56,20.69,8.09a58.46,58.46,0,0,1-15.7,6.39c-7.05,1.74-14.94,2-21.15-1.73"/><path class="cls-1" d="M70.75,36.94c-6.86-8.53-8.69-21.77-3.58-31.44a30.73,30.73,0,0,1,3.15-4s2.69,2,3.75,3a34.8,34.8,0,0,1,4.29,6.54c3.77,8.66,3,15.35,1.86,24.72"/><path class="cls-1" d="M64,19.4a9.68,9.68,0,0,0-3-5.67,20.14,20.14,0,0,0-4.76-2.65C53.79,10,51.58,8.46,49.08,7.35a37,37,0,0,0-2.2,7.52,12.59,12.59,0,0,0,1,7.66c1.45,2.74,4.13,4.57,6.32,6.76,3.66,3.66,6,9.87,6.63,15C63.19,42.45,64,41,66.35,39.16a32.26,32.26,0,0,1,4.86-2.4"/><path class="cls-1" d="M57,50.42c-1.88-1.8-4.75-3.67-6.79-5.29A33.72,33.72,0,0,1,37.66,19.4c.12.73.32.84,1,1.16a8.59,8.59,0,0,0,2.13.57c3.32.64,6.71,2.65,9.54,4.5"/><path class="cls-1" d="M96.18,28.49c6.86-8,17-13.55,27.56-14.07a14.67,14.67,0,0,0-4.73,6.9c-1,2.65-1.62,5.43-2.69,8.05A25.89,25.89,0,0,1,97.06,44.8"/><path class="cls-1" d="M122.54,63.59A30.75,30.75,0,0,1,139.83,78.8c-7.27.85-14.69,1.69-21.85.15S103.87,73,101.19,66.23"/><path class="cls-1" d="M87.37,81l4.28,6.74A68.65,68.65,0,0,0,98,96.57a34.47,34.47,0,0,0,18.16,10.68,28,28,0,0,0-6.19-18.66c-4.22-5.19-10.85-10-17.45-11.08"/><path class="cls-1" d="M49.3,44.36a30.35,30.35,0,0,0-25.07-1.44,10.23,10.23,0,0,1,9.68,5.46C35,50.51,35.3,53,36.67,55c1.9,2.7,5.49,3.77,8.78,3.5s7.24-1.77,10.24-3.14"/><path class="cls-1" d="M116.27,29.64a28.93,28.93,0,0,1,14.64-2c-1.74,1.71-2.32,4.23-3.15,6.52-2.36,6.52-6.59,11.74-12.87,14.67"/><path class="cls-1" d="M80.6,82.44a12.64,12.64,0,0,0-.85,8.8,37.71,37.71,0,0,0,3.41,8.34l6,11.8c.29.57,3.27,5.16,3.27,5.16s3.15-5.69,3.49-6.43c3.34-7.16,1.74-10.78-1.35-18"/><path class="cls-1" d="M120.26,79.15a59,59,0,0,1,4.59,15.95,27.93,27.93,0,0,1-13.09-3.73"/><path class="cls-1" d="M36,60.62a24.63,24.63,0,0,0-1-9.82,11.78,11.78,0,0,0-6.39-7.2c-4-1.6-8.87-.06-11.82,3.12s-4.17,7.68-4.05,12c5.28-.45,10.33,2.9,13.21,7.34a24.61,24.61,0,0,1,2.78,6.11,33.73,33.73,0,0,1,.84,3.29c.16.74.12,2.76.57,3.34,1.29,1.62,2.42-2.45,2.73-3.32a55.2,55.2,0,0,0,2-7.06A57.1,57.1,0,0,0,36,60.62Z"/><path class="cls-1" d="M37.06,109.87A19.16,19.16,0,0,0,40,118a9.47,9.47,0,0,0,7.25,4.2A8.61,8.61,0,0,0,54.49,118a11.77,11.77,0,0,0,1.32-8.41A18.87,18.87,0,0,0,52,101.79a27.35,27.35,0,0,0-10.48-8.15c-1.52-.67-3.47-1.89-4.1.24a33.7,33.7,0,0,0-.84,6.87A39.79,39.79,0,0,0,37.06,109.87Z"/><path class="cls-1" d="M12.77,58.73A10.23,10.23,0,0,0,4.5,63.52a8.78,8.78,0,0,0,.14,8.81c1.87,3,5.37,4.58,8.73,5.74a82.44,82.44,0,0,0,13.48,3.42,5.62,5.62,0,0,0,2.12.07,2,2,0,0,0,1.57-1.29c.19-.69-.19-.74-.57-1.91"/><path class="cls-1" d="M40.22,93c0-.28-1.95-.74-.23-1.57,4.59-2.22,11.4-2.17,17.06-1.17s11.13,3.88,14.41,8.59a14.3,14.3,0,0,1,2.65,9.87,12,12,0,0,1-7.43,9.45c-3.92,1.51-7.78,1.38-11-1.33"/><path class="cls-1" d="M80.3,92.83c-1,2.32-1.29,4.92-2,7.36s-2.06,4.94-4.41,5.93"/><path class="cls-1" d="M67.7,79.92c-.62,2.2-.54,4.53-.79,6.81s-1,4.66-2.73,6.11"/><path class="cls-1" d="M35.65,64.91A26.26,26.26,0,0,1,55.83,64"/><path d="M55.92,60.74a13.41,13.41,0,0,0,2.83-5.29c.37-2-.41-4.34-2.27-5.1-1.59-.65-3.4,0-4.94.74a7.39,7.39,0,0,0-2.15,1.4,2.77,2.77,0,0,0-.83,2.33c.26,1.42,2,2.17,3.41,1.91a8.41,8.41,0,0,0,3.7-2.16c.68-.56,1.72-1.12,2.33-.48s.12,1.5-.31,2.16c-2.64,4-5.73,7.86-8,12,1.18-.14,2.09-2,2.74-2.88Z"/><path d="M64.34,73.66a14.43,14.43,0,0,1,4.72-1.18,4.91,4.91,0,0,1,4.26,2,4.62,4.62,0,0,1,.35,3.93,9.42,9.42,0,0,1-2.22,3.38c-1,1-2.44,2-3.63,1.24s-1.06-2.29-.33-3.3a7.58,7.58,0,0,1,3.05-2.08,4.94,4.94,0,0,0,1.77-1.21,1.83,1.83,0,0,0,.29-2,2.6,2.6,0,0,0-2.36-.9,27,27,0,0,0-7.47,1c-2.42.69-4.52,2.19-6.83,2.95C55.6,76.24,63.11,74.12,64.34,73.66Z"/><path d="M46.18,67.27a11.76,11.76,0,0,1,6.48,19.89,8.25,8.25,0,0,1-5.17,2.59c.89-.06-2.1-7.85-2.46-8.47a18.82,18.82,0,0,0-6.27-6.46c-.71-.44-4.7-1-5-1.66-.57-1.09,2.24-2.64,3-3.24A12.13,12.13,0,0,1,46.18,67.27Z"/><path d="M32.59,75.68a27.28,27.28,0,0,1,11.24,14l-6.6,3.09a41.63,41.63,0,0,0-9.66-11A11.18,11.18,0,0,0,32.59,75.68Z"/><path class="cls-1" d="M16.88,79.34a16,16,0,0,0,3.95,27.47,16.36,16.36,0,0,0,15.86-2.27"/><path d="M27.19,106.34c.36,1,0,.7.6,1.54s2.85-.34,3.88-.47a2,2,0,0,0,2-1.71c.26-1.09-.27-3.49-.54-4.59-2.17-9-8.87-16.53-17.11-20.86-.82,1.57-4.81,5.3-4.07,7.09.6,1.49,5.84,4.25,7.15,5.34a28.24,28.24,0,0,1,4.65,5.5C24.79,99.65,27.19,104.46,27.19,106.34Z"/><path d="M5.6,109.52A33.64,33.64,0,0,1,12.43,98c1.45,2.06,2.62,4.17,4.08,6.23A25.17,25.17,0,0,0,5.6,109.52Z"/><path class="cls-2" d="M1,116.54a32.4,32.4,0,0,0,17.37,20.75,32.38,32.38,0,0,0,27.06,0c7-3.27,12.52-8.92,19.06-13s15.2-6.4,21.81-2.45c4.63,2.77,7.26,8.22,7.44,13.6s-1.82,10.68-4.77,15.19a38.3,38.3,0,0,1-59,6.21"/><path d="M84.33,86.9a29,29,0,0,0,1.43,4.15,26.78,26.78,0,0,0,2,3.84c.76,1.22,1.74,2.27,2.48,3.48s1.54,2.41,2.23,3.81l-.14.15a10.54,10.54,0,0,1-3.68-2.74,14.64,14.64,0,0,1-2.3-4,27.81,27.81,0,0,1-1.51-4.27,24.11,24.11,0,0,1-.69-4.44Z"/><path d="M92.62,83.09c1.27,1.47,2.55,2.91,3.91,4.27s2.73,2.69,4.17,4,3,2.32,4.42,3.63a49.91,49.91,0,0,1,4.09,4.13l-.12.17a20.07,20.07,0,0,1-5.23-2.74,29.14,29.14,0,0,1-4.27-4q-2-2.14-3.81-4.45a56.14,56.14,0,0,1-3.32-4.8Z"/><path d="M103.21,76.59c.79.48,1.54,1,2.32,1.5s1.51,1,2.25,1.57A11.13,11.13,0,0,1,110,81.31a7.24,7.24,0,0,1,1.46,2.48l-.13.15a6.9,6.9,0,0,1-2.65-1.12,11.13,11.13,0,0,1-1.93-1.95c-.63-.67-1.24-1.34-1.85-2s-1.21-1.38-1.79-2.1Z"/><path d="M109,67.38a20.3,20.3,0,0,0,3.34,2.06A19.68,19.68,0,0,0,116,70.85c1.23.36,2.51.42,3.72.75s2.47.6,3.81,1.08v.2a8.39,8.39,0,0,1-4.12.7,11.54,11.54,0,0,1-4-1.23,20.25,20.25,0,0,1-3.56-2.06,17.3,17.3,0,0,1-3-2.77Z"/><path d="M107.78,55.21l-1.47.72-.11-.51A32,32,0,0,1,114,55a11.5,11.5,0,0,1,3.9.66,10.66,10.66,0,0,1,3.47,2l-.07.19a26.61,26.61,0,0,1-3.87-.31,27.68,27.68,0,0,1-3.67-.81,37.93,37.93,0,0,0-7.55-.79l-1.95,0,1.84-.47,1.58-.42Z"/><path d="M106.78,43.3a11.16,11.16,0,0,0,4-.89,12,12,0,0,0,3.38-2.1,24.13,24.13,0,0,0,2.51-3A39.75,39.75,0,0,0,119,34l.19,0a6.8,6.8,0,0,1-.88,4.38,9.22,9.22,0,0,1-3.22,3.14,13.34,13.34,0,0,1-4,1.77,10.77,10.77,0,0,1-4.3.14Z"/><path d="M96.49,37.38A22.2,22.2,0,0,0,101,35.05a21.13,21.13,0,0,0,3.84-3.2c1.16-1.19,2-2.61,3.06-3.88s2-2.64,3.06-4.06l.19.07a11.38,11.38,0,0,1-1.59,5.11A15,15,0,0,1,105.94,33a23,23,0,0,1-4.44,2.89,20.09,20.09,0,0,1-5,1.65Z"/><path d="M87,31.27l-.94,1.41-.4-.34a19.28,19.28,0,0,0,3-7.05c.23-1.26.3-2.51.56-3.75s.4-2.51.7-3.89l.2,0a8.83,8.83,0,0,1,1,4.05,9.76,9.76,0,0,1-.8,4.09,18.47,18.47,0,0,1-4.32,6.92l-.41-.34,1.2-1.19Z"/><path d="M70,13.05a20.8,20.8,0,0,0-.47,4.63,19.82,19.82,0,0,0,.48,4.55c.31,1.49,1,2.86,1.35,4.3s.93,2.87,1.36,4.46l-.16.12a10.15,10.15,0,0,1-3.06-3.85,13.68,13.68,0,0,1-1.08-4.79,21.9,21.9,0,0,1,.11-4.86A19.06,19.06,0,0,1,69.85,13Z"/><path d="M54.56,16.75a17,17,0,0,0,.8,5.33,17.86,17.86,0,0,0,2.28,4.76,30.61,30.61,0,0,0,3.46,3.89,47,47,0,0,0,4,3.59L65,34.5a10.44,10.44,0,0,1-5.24-2.28,13.65,13.65,0,0,1-3.5-4.55,18.5,18.5,0,0,1-1.88-5.36,16.09,16.09,0,0,1,0-5.58Z"/><path d="M45.46,28.19a16.83,16.83,0,0,0,1.14,4,16.46,16.46,0,0,0,2,3.53c.79,1.09,1.81,1.95,2.65,3s1.77,2,2.72,3.13l-.1.18a8.25,8.25,0,0,1-4-1.87,11,11,0,0,1-2.62-3.56,17.2,17.2,0,0,1-1.56-4.07,15.05,15.05,0,0,1-.39-4.27Z"/><path d="M35.41,43.88a27.91,27.91,0,0,1,4,.76A33.1,33.1,0,0,1,43.36,46,14.6,14.6,0,0,1,47,48a10.17,10.17,0,0,1,2.68,3.27l-.14.14a25.47,25.47,0,0,1-3.67-1.76c-1.16-.62-2.14-1.51-3.28-2.2a31.82,31.82,0,0,0-3.51-1.87,37,37,0,0,0-3.74-1.51Z"/><path d="M57.86,88.35c.51-.67,1-1.33,1.44-2s.83-1.39,1.19-2.11a16.42,16.42,0,0,1,1-2.17,8.86,8.86,0,0,1,1.71-1.94l.19.06a4.72,4.72,0,0,1-.08,2.72,6.56,6.56,0,0,1-1.44,2.2A14.55,14.55,0,0,1,60.05,87,15.27,15.27,0,0,1,58,88.5Z"/><path d="M70.48,92.54a7.59,7.59,0,0,1-.31-4.06,4,4,0,0,1,.67-2,3,3,0,0,1,1.92-1.13l.15.13a7,7,0,0,1-.34,2A9.55,9.55,0,0,1,71.7,89a10.74,10.74,0,0,0-.65,1.69,10.32,10.32,0,0,0-.37,1.87Z"/></g></g></svg>