<svg xmlns="http://www.w3.org/2000/svg" viewBox="0 0 496.92 482.64"><defs><style>.cls-1{fill:#f99b06;}</style></defs><title>Fichier 1</title><g id="Calque_2" data-name="Calque 2"><g id="Calque_1-2" data-name="Calque 1"><path class="cls-1" d="M359.4,174c-17.39,37.66-32.73,79.59-48.61,118.29L433.1,265.3c38-8.35,51.33-63.87,28.19-93.89-24.86-32.23-82.16-36.67-101.89,2.55ZM198.35,0a28.13,28.13,0,0,1,12.26,53.44v75.61c36.24,17.25,62.91,52.33,59.1,93.76a149.14,149.14,0,0,1,18.37,5.28l-5.88-67.47c-7.44-85.07,127.75-122.25,165.35-31,72.87,32.37,61.08,144.15-9.19,159.63l-63,13.88c19.81,35.84,26.07,81.44,4.79,118.12l27.71,42.38c6.78,10.41-4.68,23.34-15.86,17.58l-48.35-24.91C293,483.06,230.28,461,191.5,423.27c-29.12-28.29-49.16-68.38-47.57-109.61-53.17-3.63-107.17-41-107.17-98.47C36.76,191,47,168.84,64,151.68L27.42,70.85a28.11,28.11,0,1,1,22.31-10.1l34,75.15c30-18.91,68.07-24,102.34-15.58V53.44A28.13,28.13,0,0,1,198.35,0ZM306.63,158.51,312.34,224c7.85-19.13,15.64-38.3,23.56-57.41,13.31-31.06,46.47-46.24,78.91-44.66-35.14-42.79-112.65-14.87-108.18,36.55Zm-16.15,97a121,121,0,0,0-26.45-8.9c-15.35,38.83-55.29,62.11-95.57,66.52a103.85,103.85,0,0,0,4.82,36.34c46.27-7.11,114.64-33.91,117.2-94Zm-1.18,65.9c-26.39,32.12-66.42,44.57-106.09,51.24a143.12,143.12,0,0,0,37.21,43.4c42.31-6.21,159.2-59.14,129.8-107.41C333.25,312.42,306.07,323.25,289.3,321.45ZM153.41,140.92c-42.44,0-92.12,27.08-92.12,74.27s49.68,74.26,92.12,74.26,92.11-27.08,92.11-74.26S195.8,140.92,153.41,140.92Zm38.22,36.49c15.46,0,28,11.62,28,26s-12.53,25.95-28,25.95-28-11.62-28-25.95S176.17,177.41,191.63,177.41Zm-76.45.25c15.46,0,28,11.61,28,26s-12.54,25.94-28,25.94-28-11.62-28-25.94S99.72,177.66,115.18,177.66ZM366.72,349c-20.24,49.75-63.91,74.12-114,85.86,26.62,10.81,59,13,84.08-2.87,8.13-5.12,17.88,2.44,25.14,6.18-4.83-7.39-12.9-15.92-5.92-24.56C369.1,394.81,371.27,371,366.72,349Z"/></g></g></svg>