<svg xmlns="http://www.w3.org/2000/svg" viewBox="0 0 278.01 177.7"><defs><style>.cls-1,.cls-3{fill:none;}.cls-1,.cls-2,.cls-3{stroke:#000;stroke-miterlimit:10;}.cls-1,.cls-2{stroke-width:1.21px;}.cls-2{fill:#fff;}.cls-3{stroke-width:2.42px;}.cls-4{fill:#fea621;}.cls-5{font-size:10.14px;font-family:MyriadPro-Regular, Myriad Pro;}.cls-6{letter-spacing:0.01em;}.cls-7{letter-spacing:-0.02em;}.cls-8{letter-spacing:0em;}.cls-9{letter-spacing:-0.02em;}</style></defs><title>Fichier 3</title><g id="Calque_2" data-name="Calque 2"><g id="Calque_2-2" data-name="Calque 2"><path class="cls-1" d="M65.91,116.06c-.82-12.63,6.61-26.14,17.66-32.31,3.89-2.18,8.94-3.49,12.66-1s4.53,7.84,7,11.77,6.71,6.49,10.34,9.48,7,7.22,6.41,11.88c-2.15-2.63-5.89-3.55-9.25-3a21.79,21.79,0,0,0-9.13,4.28,56.29,56.29,0,0,0-17.46,20.7c-2.5-.3-6.2,2.08-8,3.86"/><path class="cls-1" d="M54.68,116.14C55.5,103.51,48.07,90,37,83.83c-3.9-2.17-9-3.49-12.67-1s-4.53,7.83-6.95,11.76-6.7,6.49-10.33,9.48-7,7.22-6.41,11.89c2.14-2.64,5.89-3.56,9.24-3a21.79,21.79,0,0,1,9.14,4.29A56.06,56.06,0,0,1,36.5,137.88a10.83,10.83,0,0,1,7.76,2.92"/><path class="cls-1" d="M.67,115.93c0,4.33,1.88,5.86,3.51,8.13,2.71,3.76,5.48,7.67,6.49,12.19s-.21,9.89-4.11,12.41A33.06,33.06,0,0,0,15.35,147a11.1,11.1,0,0,0,6.47-5.85c1.24-3.08.52-6.55.25-9.86s.18-7.15,2.89-9.07"/><path class="cls-1" d="M58.38,86.84c.83,6.72,1.66,13.62,0,20.18S52.72,119.2,50,125.37s-4,13.7-.41,19.38a13,13,0,0,0,23.13-2.55c1.53-4.21.78-8.94-.83-13.12s-4-8-5.89-12.06a54,54,0,0,1-3.14-36.64c1.08-3.95-2.06-7.08-6.06-6.84C56.87,77.92,57.83,82.47,58.38,86.84Z"/><path class="cls-1" d="M52.66,126.19c-1.74,4.1-2.2,9-.2,12.94a10.33,10.33,0,0,0,6.66,5.44,8.36,8.36,0,0,0,8.09-2.44c2-2.26,2.42-5.57,1.86-8.53a29.83,29.83,0,0,0-3.42-8.32c-1.23-2.32-3.39-9.44-5.19-11.24C58.88,112.46,53.52,124.14,52.66,126.19Z"/><path class="cls-2" d="M36.18,116.84c-.59-10.92,2.18-23.36,9-31.93l-2,.72a14.87,14.87,0,0,1,3-14.13c1-1.1,2.37-2.12,3.8-1.77s2.63,4.1,1.22,4.5a10.15,10.15,0,0,1,1.41-1.45,1.36,1.36,0,0,1,2.27,1.12c-.23,3.28-1.68,6.06-3.23,9.47-.75,1.66-3.05,3.37-4.07,1.85a47.46,47.46,0,0,0-7,44c1,2.95,5.63,12.69,9.82,16.59C41.69,142.54,36.66,125.91,36.18,116.84Z"/><path class="cls-2" d="M84.5,116.84c.59-10.92-2.18-23.36-9-31.93l2,.72a14.87,14.87,0,0,0-3-14.13c-1-1.1-2.37-2.12-3.8-1.77s-2.63,4.1-1.22,4.5a10.15,10.15,0,0,0-1.41-1.45,1.36,1.36,0,0,0-2.27,1.12c.23,3.28,1.68,6.06,3.23,9.47.75,1.66,3,3.37,4.07,1.85a48,48,0,0,1,9.57,29.18,47.3,47.3,0,0,1-2.57,14.82c-1,2.95-6.67,14.66-10.85,18.55C78,144.5,84,125.91,84.5,116.84Z"/><path class="cls-1" d="M119.93,115.84c0,4.33-1.88,5.87-3.51,8.14-2.71,3.76-5.49,7.67-6.49,12.19s.21,9.89,4.1,12.41a33,33,0,0,1-8.78-1.69A11.12,11.12,0,0,1,98.77,141c-1.24-3.08-.51-6.55-.24-9.86s-.19-7.15-2.9-9.07"/><path class="cls-1" d="M36.5,137.88c-.47.28-2.88.67-2.88,2.56,4.32-2.83,7.31.83,8.71,3.89s1.56,6.51,2.33,9.79c1.17,5,3.94,9.8,8.27,12.58s10.33,3.17,14.56.25c3.85-2.67,5.64-7.39,6.89-11.9s2.28-9.28,5.25-12.89a7.31,7.31,0,0,1,3.79-2.65c1.53-.37,2.24.4,5,2.52-.79-2.8-1.29-3.8-4.07-4.28"/><path class="cls-1" d="M33.62,140.44c-2.86,1.44-4,5.06-3.69,8.25s1.66,6.16,2.51,9.25,1.11,6.6-.63,9.29a9.88,9.88,0,0,0,6.15-7c.57-2.57.08-5.25.36-7.86s1.77-5.46,4.36-5.89"/><path class="cls-1" d="M77.56,145.69c2.64,1,4.13,3.88,4.72,6.65s.49,5.67,1.17,8.43,2.38,5.54,5.11,6.3c-1.41-2.59-1.25-5.75-.63-8.64s1.69-5.68,2-8.62-.92-7-3.11-9"/><path class="cls-1" d="M58.82,169.38l0,8.31"/><path class="cls-1" d="M63,169.19l.18,8.31"/><path class="cls-1" d="M220.8,116.06c-.82-12.63,6.61-26.14,17.66-32.31,3.89-2.18,8.94-3.49,12.66-1s4.53,7.84,6.95,11.77,6.7,6.49,10.33,9.48,7,7.22,6.42,11.88c-2.15-2.63-5.89-3.55-9.25-3a21.79,21.79,0,0,0-9.13,4.28A56.29,56.29,0,0,0,239,137.8c-2.5-.3-6.2,2.08-8,3.86"/><path class="cls-1" d="M209.57,116.14c.82-12.63-6.61-26.14-17.66-32.31-3.89-2.17-8.94-3.49-12.66-1s-4.53,7.83-6.95,11.76S165.6,101.05,162,104s-7,7.22-6.41,11.89c2.14-2.64,5.89-3.56,9.24-3a21.85,21.85,0,0,1,9.14,4.29,56.06,56.06,0,0,1,17.45,20.69,10.84,10.84,0,0,1,7.76,2.92"/><path class="cls-1" d="M155.56,115.93c0,4.33,1.88,5.86,3.51,8.13,2.71,3.76,5.48,7.67,6.49,12.19s-.22,9.89-4.11,12.41a33.06,33.06,0,0,0,8.79-1.69,11.13,11.13,0,0,0,6.47-5.85c1.24-3.08.52-6.55.25-9.86s.18-7.15,2.89-9.07"/><path class="cls-1" d="M213.26,86.84c.84,6.72,1.67,13.62,0,20.18s-5.65,12.18-8.37,18.35-4,13.7-.42,19.38a13,13,0,0,0,23.14-2.55c1.53-4.21.77-8.94-.83-13.12s-4-8-5.89-12.06a54,54,0,0,1-3.14-36.64c1.07-3.95-2.06-7.08-6.06-6.84C211.76,77.92,212.72,82.47,213.26,86.84Z"/><path class="cls-1" d="M207.55,126.19c-1.74,4.1-2.21,9-.2,12.94a10.33,10.33,0,0,0,6.66,5.44,8.36,8.36,0,0,0,8.09-2.44c2-2.26,2.42-5.57,1.86-8.53a29.83,29.83,0,0,0-3.42-8.32c-1.23-2.32-3.39-9.44-5.19-11.24C213.77,112.46,208.41,124.14,207.55,126.19Z"/><path class="cls-2" d="M191.07,116.84c-.59-10.92,2.18-23.36,9-31.93l-2,.72a14.87,14.87,0,0,1,3-14.13c1-1.1,2.37-2.12,3.8-1.77s2.63,4.1,1.22,4.5a10.15,10.15,0,0,1,1.41-1.45,1.36,1.36,0,0,1,2.27,1.12c-.23,3.28-1.68,6.06-3.23,9.47-.75,1.66-3.05,3.37-4.08,1.85a48,48,0,0,0-9.56,29.18,47.3,47.3,0,0,0,2.57,14.82c1,2.95,5.63,12.69,9.81,16.59C196.58,142.54,191.55,125.91,191.07,116.84Z"/><path class="cls-2" d="M239.39,116.84c.59-10.92-2.18-23.36-9-31.93l2,.72a14.82,14.82,0,0,0-3-14.13c-1-1.1-2.37-2.12-3.8-1.77s-2.62,4.1-1.21,4.5A10.72,10.72,0,0,0,223,72.78a1.36,1.36,0,0,0-2.27,1.12c.23,3.28,1.68,6.06,3.23,9.47.75,1.66,3.05,3.37,4.07,1.85a47.46,47.46,0,0,1,7,44c-1,2.95-6.67,14.66-10.85,18.55C232.84,144.5,238.91,125.91,239.39,116.84Z"/><path class="cls-1" d="M274.82,115.84c0,4.33-1.89,5.87-3.52,8.14-2.7,3.76-5.48,7.67-6.48,12.19s.21,9.89,4.1,12.41a32.91,32.91,0,0,1-8.78-1.69,11.12,11.12,0,0,1-6.48-5.85c-1.24-3.08-.51-6.55-.24-9.86s-.19-7.15-2.9-9.07"/><path class="cls-1" d="M191.39,137.88c-.47.28-2.89.67-2.89,2.56,4.33-2.83,7.32.83,8.71,3.89s1.57,6.51,2.34,9.79c1.17,5,3.94,9.8,8.27,12.58s10.33,3.17,14.56.25c3.85-2.67,5.64-7.39,6.89-11.9s2.28-9.28,5.25-12.89a7.31,7.31,0,0,1,3.79-2.65c1.53-.37,2.24.4,4.95,2.52-.79-2.8-1.29-3.8-4.07-4.28"/><path class="cls-1" d="M188.5,140.44c-2.86,1.44-4,5.06-3.68,8.25s1.66,6.16,2.51,9.25,1.11,6.6-.63,9.29a9.88,9.88,0,0,0,6.15-7c.57-2.57.08-5.25.36-7.86s1.77-5.46,4.35-5.89"/><path class="cls-1" d="M232.45,145.69c2.64,1,4.13,3.88,4.72,6.65s.49,5.67,1.17,8.43,2.38,5.54,5.11,6.3c-1.41-2.59-1.26-5.75-.63-8.64s1.69-5.68,2-8.62-.92-7-3.11-9"/><path class="cls-1" d="M213.71,169.38l0,8.31"/><path class="cls-1" d="M217.84,169.19l.18,8.31"/><path class="cls-1" d="M137.2,46.12a14.15,14.15,0,0,0,5.74-7.4,9.36,9.36,0,0,0-1.83-8.92,7,7,0,0,0-8.68-1.28c-2.46,1.63-3.36,4.75-4.09,7.61l-2.3,9c-.59,2.33-.46,6.33,3,5.18A37.16,37.16,0,0,0,137.2,46.12Z"/><path d="M129.3,41.78a2.6,2.6,0,0,0,1.17,2.38c1.15.63,2.56-.06,3.65-.8A12.08,12.08,0,0,0,138,39.48c1.45-2.59.64-7.93-3.38-7.11C131.72,33,129.38,39.21,129.3,41.78Z"/><path class="cls-1" d="M113,40.9a8.44,8.44,0,0,1,7.11-2.9c2.65.24,5.44.75,6.77,3.06-.18-1.15-.55-2.53-1.68-2.83s-2.12.71-2.82,1.64a47.49,47.49,0,0,0-5,8.38"/><path class="cls-1" d="M136.94,46.39c1.56,3.35,5.64,5,9.3,4.55s6.89-2.7,9.42-5.38a9.75,9.75,0,0,0,3-5.37c.22-2.07-1-4.41-3-4.79a10.7,10.7,0,0,0-3.36.33,3,3,0,0,1-3.05-1,2.5,2.5,0,0,1,.57-3,7.29,7.29,0,0,1,2.88-1.5,7.67,7.67,0,0,0-10.88,1.06"/><path class="cls-1" d="M154.84,49.73c2.06,5.67,10.3,2.43,13.93,4.93,1.32.9,2.57,2,4.14,2.35a5.28,5.28,0,0,0,5.47-2.95,8.33,8.33,0,0,0,.09-6.5,20,20,0,0,0-3.54-5.62c-1.21-1.48-2.48-2.92-3.81-4.3-.88-.92-2.49-3.2-3.71-3.57s-3.84.63-5.19.81c-1.83.25-4.8.34-6.64.52"/><path class="cls-1" d="M146.87,28.52C155.28,19.56,165,9.93,173.39,1A14.06,14.06,0,0,1,175,13.33"/><path d="M136.88,57.93a9.81,9.81,0,0,0,4.58,3.12L138,56.81s5.68-.89,6.15-1.12c1.42-.67,2-1.49.61-2.27C142.42,52.18,134.4,54.91,136.88,57.93Z"/><path d="M154.34,40.85a1.47,1.47,0,0,1,1.64.77,4.29,4.29,0,0,1,.41,1.91c.09,1.8.16,3.61.21,5.41a2.49,2.49,0,0,1-.22,1.33.85.85,0,0,1-1.16.37,1.24,1.24,0,0,1-.38-.91C154.68,48.42,152.94,41.32,154.34,40.85Z"/><path d="M142.94,52.86a3.11,3.11,0,0,1-1.18.18l2.56.89a1.3,1.3,0,0,0,.82.09c.47-.16.44-.73.33-1.14-.22-.85-1.05-2.87-2.62-2.28S144.67,52.05,142.94,52.86Z"/><path d="M153.06,52.3l-1.67,2.78-3,4.94a4.3,4.3,0,0,1,1.88-1.87c.78-.45,1.63-.78,2.39-1.25A7.39,7.39,0,0,0,156,51.52c.08-.69.25-2.68-.9-2.27C154.26,49.56,153.5,51.57,153.06,52.3Z"/><path class="cls-1" d="M151.54,30.66c3.57-2.52,8-6.43,11.59-8.95,6.77-4.77,13.57-9.59,19.38-15.5.67-.68,1.7-1.43,2.49-.87a2,2,0,0,1,.61,1.39A25.42,25.42,0,0,1,181.73,24a24.38,24.38,0,0,1-13.9,10.35"/><path class="cls-3" d="M164.47,34.67c-.46,6.8-1.57,11.71-6.08,18"/><path class="cls-3" d="M171.12,37.64c-1.28,4.73-7.34,12.51-6.65,15.69"/><path class="cls-3" d="M174.55,41.47C172.94,46.19,172.71,52.1,169,55"/><path class="cls-3" d="M178.91,48.94c-2.63.25-4.36,4.83-6.75,7.73"/><path class="cls-1" d="M110.23,43.92A69.46,69.46,0,0,0,67.44,59"/><path d="M62,63.87a36.79,36.79,0,0,0,4-11.16l2.23,5.71,5.37,2.95A36.51,36.51,0,0,0,62,63.87Z"/><path class="cls-1" d="M266.09,46.69A69.46,69.46,0,0,0,223.3,61.78"/><path d="M217.84,66.64a36.64,36.64,0,0,0,4-11.15l2.23,5.7,5.36,3A36.49,36.49,0,0,0,217.84,66.64Z"/><path class="cls-1" d="M57.91,68.59A76.67,76.67,0,0,0,23.79,51.92"/><path d="M16.57,50.79a36.55,36.55,0,0,0,11.16-4l-3,5.34,1.11,6A36.78,36.78,0,0,0,16.57,50.79Z"/><path class="cls-1" d="M211.72,68.22A47.87,47.87,0,0,0,193,58.42"/><path d="M185.85,57.08a36.66,36.66,0,0,0,11.26-3.65L194,58.68l.93,6.05A36.67,36.67,0,0,0,185.85,57.08Z"/><path d="M163,62.58a19.89,19.89,0,0,0,3.73,5,5,5,0,0,0-3.61-5.41"/><path class="cls-4" d="M159.9,52.59a4,4,0,0,1,.28,3.35,9.58,9.58,0,0,0-.61,3.4,4.13,4.13,0,0,0,3.7,3.4A5.73,5.73,0,0,0,168,60.6a9.6,9.6,0,0,0,2-5,8.62,8.62,0,0,0-1.33-6.3c-1.34-1.75-3.92-2.65-5.85-1.59a5.1,5.1,0,0,0-2.35,3.39,15.36,15.36,0,0,0-.2,4.23"/><path class="cls-1" d="M152.77,69.77l5.31-5.48"/><path class="cls-1" d="M156,96.05a56.52,56.52,0,0,1,12.58,9.6"/><path class="cls-1" d="M232.27,72.37A50.88,50.88,0,0,0,240,68"/><path class="cls-1" d="M30.84,77.3a31.16,31.16,0,0,0,25,10.12"/><path class="cls-1" d="M64.86,137.37l22.59,14.71a67.55,67.55,0,0,0,10.65,6,22.48,22.48,0,0,0,12,1.79"/><text class="cls-5" transform="translate(112.6 161.73)"><tspan class="cls-6">O</tspan><tspan x="7.13" y="0">vule</tspan></text><text class="cls-5" transform="translate(133.81 93.66)"><tspan class="cls-7">P</tspan><tspan x="5.14" y="0">étale</tspan></text><text class="cls-5" transform="translate(133.06 77.3)"><tspan class="cls-7">P</tspan><tspan x="5.14" y="0">ollen</tspan></text><text class="cls-5" transform="translate(243.26 68.22)"><tspan class="cls-8">E</tspan><tspan x="4.96" y="0">tamine</tspan></text><text class="cls-5" transform="translate(9.32 75.4)"><tspan class="cls-9">P</tspan><tspan x="5.23" y="0">istil</tspan></text></g></g></svg>