<svg xmlns="http://www.w3.org/2000/svg" viewBox="0 0 58 68"><defs><style>.cls-1{fill:#f99b06;}</style></defs><title>Fichier 1</title><g id="Calque_2" data-name="Calque 2"><g id="Calque_1-2" data-name="Calque 1"><path class="cls-1" d="M45.33,58A7,7,0,0,1,39,68H19a7,7,0,0,1-6.33-10H12a7,7,0,0,1-7-7,6.88,6.88,0,0,1,.73-3.11,7,7,0,0,1,0-13.78A6.88,6.88,0,0,1,5,31a7,7,0,0,1,7-7h.67A7,7,0,0,1,19,14H39a7,7,0,0,1,6.33,10H46a7,7,0,0,1,7,7,6.88,6.88,0,0,1-.73,3.11,7,7,0,0,1,0,13.78A6.88,6.88,0,0,1,53,51a7,7,0,0,1-7,7ZM7,38a3,3,0,0,0,0,6H51a3,3,0,0,0,0-6ZM19,18a3,3,0,0,0,0,6H39a3,3,0,0,0,0-6ZM12,48a3,3,0,0,0,0,6H46a3,3,0,0,0,0-6Zm0-20a3,3,0,0,0,0,6H46a3,3,0,0,0,0-6Zm7,30a3,3,0,0,0,0,6H39a3,3,0,0,0,0-6ZM56.5,18A1.5,1.5,0,1,1,58,16.5,1.5,1.5,0,0,1,56.5,18ZM14.5,6A1.5,1.5,0,1,1,16,4.5,1.5,1.5,0,0,1,14.5,6Zm22-2A1.5,1.5,0,1,1,38,2.5,1.5,1.5,0,0,1,36.5,4ZM50,4a2,2,0,1,1,2-2A2,2,0,0,1,50,4ZM3,22a2,2,0,1,1,2-2A2,2,0,0,1,3,22ZM27,10a2,2,0,1,1,2-2A2,2,0,0,1,27,10Z"/></g></g></svg>